<svg xmlns="http://www.w3.org/2000/svg" viewBox="420 440 800 570" preserveAspectRatio="xMidYMid meet">
  <path fill="#000" d="M976.1714,471.20703C972.24634,472.1543,965.47876,474.72632,961.28296,476.75635C953.02686,480.81665,938.6797,494.08105,935.2959,500.8484C934.21313,503.01392,933.26587,505.0442,933.1304,505.31494C932.9951,505.5857,929.07007,502.7434,924.33276,499.22412C908.7676,487.44897,891.8491,481.6289,870.05786,480.2754C849.2141,479.05737,840.55176,483.79443,840.55176,496.6526C840.55176,506.8037,850.2969,512.353,868.16284,512.353C882.23926,512.353,901.05273,520.4739,907.6848,529.5425C909.3091,531.57275,910.93335,536.44507,911.4746,540.0996C913.0989,550.386,917.97144,565.00366,931.37085,598.70557C958.4407,666.5154,964.53125,685.05835,966.4263,705.7666C971.56934,760.85376,939.0857,806.8723,887.6533,817.4297C879.5322,819.18896,868.70435,819.5952,838.251,819.5952C794.26245,819.5952,786.27686,818.51245,770.84717,810.93286C758.9365,804.97754,752.71045,799.8342,746.7551,790.9009C727.80615,762.20703,738.3635,729.3174,779.6448,688.30664C802.65405,665.4326,804.6843,661.7783,804.6843,643.6416C804.5491,632.4075,804.1428,629.83594,800.89453,623.3391C798.8645,619.27856,796.1575,614.677,794.80396,613.05273C789.9314,607.2329,779.6448,600.6006,773.28345,599.1116C769.7644,598.29956,736.33325,595.728,699.1123,593.5625C661.89136,591.2615,623.18164,588.82495,613.16565,588.14844C563.0867,584.35864,562.68054,584.35864,552.8002,594.3745C541.9723,605.0669,540.0774,621.44434,547.65686,638.0923C551.0405,645.6719,559.2969,655.2815,566.47034,659.74805C568.63586,661.10156,568.77124,661.50757,567.28235,662.1841C563.0867,663.94385,538.85913,680.9978,529.2495,688.9834C514.2257,701.43555,492.56995,724.4448,480.6593,740.5513C461.98096,765.8618,444.38574,800.105,438.56567,823.114C435.588,834.6189,435.99402,839.76196,440.05444,846.52954C444.38574,853.5676,449.25818,854.7859,473.75635,854.7859L495.5476,854.78564L494.46484,863.17725C491.7578,884.9685,494.6001,905.1355,502.9917,923.54297C527.3546,977.00586,590.69775,1001.77466,645.10803,979.1714C679.21606,964.9597,703.44336,935.3186,711.2937,897.6914L711.97046,894.0371L807.9326,894.0366C916.6179,894.0371,917.0239,894.0371,936.6494,884.42725C945.718,879.96045,950.7258,876.03564,961.0122,866.155C973.87036,853.5676,978.4724,850.72534,984.969,850.72534C987.4053,850.72534,988.2173,851.2666,987.5408,852.7556C983.3447,863.85425,983.2095,892.81885,987.4053,908.24854C992.81934,928.145,1007.16626,949.8008,1023.94946,963.47095C1035.0481,972.2688,1044.1165,977.27637,1058.8696,982.4199C1070.6448,986.4802,1072.4043,986.6157,1090.947,986.6157C1109.2192,986.6157,1111.3848,986.345,1123.1602,982.4199C1140.7556,976.4646,1153.2075,968.7495,1166.8779,955.07935C1185.2852,936.6719,1194.6245,917.58765,1197.7375,892.5481C1202.7454,852.7556,1185.8267,814.99316,1151.4482,789.5476C1143.8687,783.8628,1144.8159,783.051,1159.0276,783.051C1174.8633,783.051,1183.1196,776.6892,1180.9541,766.5383C1179.0593,758.2822,1160.3811,742.7168,1140.3494,732.7012C1119.3704,722.1438,1099.4741,717.67725,1077.6829,718.354L1063.0652,718.76L1056.9746,706.57886C1051.5608,695.4802,1033.1533,666.3801,1000.2634,616.57153C986.864,596.13403,969.13306,568.2522,969.13306,567.3047C969.13306,567.0342,972.3816,567.5757,976.30664,568.65796C986.59326,571.36523,998.6394,571.0945,1003.7825,567.98145C1009.3318,564.59766,1014.74585,553.093,1017.45264,539.01685C1021.3779,518.30835,1017.7234,486.63696,1010.2793,475.9441C1005.40674,469.17676,991.0598,467.14648,976.1714,471.20703 Z M1107.0537,816.2114C1142.9211,824.7383,1164.5769,861.41797,1154.6965,897.01465C1146.8464,925.7085,1120.8591,945.4697,1090.947,945.4697C1073.6226,945.4697,1058.1926,938.70215,1044.7932,925.3025C1027.604,907.978,1021.6487,885.104,1028.6868,862.3655C1031.2583,853.97363,1041.2742,837.1904,1044.252,836.2429C1045.064,836.10767,1052.2373,847.4768,1060.3584,861.5532C1077.6829,891.6006,1080.3901,894.7136,1089.0525,894.7136C1094.331,894.7136,1095.8198,894.0371,1099.2034,890.2473C1106.1062,882.5325,1105.2942,879.5547,1086.7515,847.8828C1077.6829,832.45337,1070.2388,819.3242,1070.1033,818.64746C1069.8328,817.02344,1082.4204,814.4519,1090.947,814.3164C1095.0078,814.3164,1102.3164,815.12866,1107.0537,816.2114 Z M611.94763,826.36255C641.4536,831.91187,661.89136,860.8767,656.6127,889.57056C654.447,901.4812,648.22107,912.98584,639.96484,920.42993C606.66895,950.34204,555.23645,932.2053,547.9276,887.81104C544.2731,865.8843,556.8606,841.657,577.29834,831.64136C589.34424,825.6858,599.9015,824.0615,611.94763,826.36255 Z"/>
</svg>
